<svg xmlns="http://www.w3.org/2000/svg" width="33.533" height="19.989" viewBox="0 0 33.533 19.989">
  <g id="eye" transform="translate(0 -98.725)">
    <path id="Path_3419" data-name="Path 3419" d="M16.767,98.725c-6.407,0-12.217,3.505-16.5,9.2a1.327,1.327,0,0,0,0,1.585c4.287,5.7,10.1,9.206,16.5,9.206s12.217-3.505,16.5-9.2a1.327,1.327,0,0,0,0-1.585C28.984,102.23,23.174,98.725,16.767,98.725Zm.46,17.032a7.053,7.053,0,1,1,6.578-6.578A7.057,7.057,0,0,1,17.226,115.757Zm-.213-3.251a3.8,3.8,0,1,1,3.546-3.546A3.792,3.792,0,0,1,17.014,112.506Z" transform="translate(0)" fill="#a5a6a7"/>
  </g>
</svg>
